# 3ds Max Wavefront OBJ Exporter v0.97b - (c)2007 guruware
# File Created: 18.05.2017 17:53:35

mtllib Puente_plano_col.mtl

#
# object Puente_plano_Col
#

v  676.5610 4.9280 -416.1433
v  536.3501 3.3817 -416.1640
v  536.2739 3.3817 413.2878
v  676.4878 6.2681 413.3087
v  390.6206 1.6781 -416.1859
v  383.0825 1.6781 413.2650
v  232.4028 -0.0000 -416.2094
v  232.3267 -0.0000 413.2426
v  -0.0469 -0.0000 413.2081
v  -0.0571 -200.8972 493.6841
v  227.6675 -200.8972 534.3460
v  492.3354 -200.8972 628.0978
v  676.5103 -199.5572 741.7272
v  676.5083 -199.5571 -720.5210
v  536.3491 -199.5571 -658.7151
v  353.8677 -200.8972 581.9523
v  390.6187 -199.5571 -551.4736
v  232.3999 -199.5571 -500.3738
v  0.0474 -0.0000 -416.2437
v  0.0562 -199.5571 -493.8719
v  -676.5815 4.9280 413.1547
v  -536.3677 3.3817 413.1657
v  -536.2529 3.3817 -416.2861
v  -676.4658 4.9280 -416.2973
v  -383.1763 1.6781 413.1778
v  -390.5234 1.6781 -416.2747
v  -232.4204 -0.0000 413.1896
v  -232.3057 -0.0000 -416.2622
v  -227.7905 -200.8972 534.2942
v  -676.6777 -200.8972 741.5732
v  -492.4785 -200.8972 627.9857
v  -536.1987 -199.5571 -658.8372
v  -676.3442 -199.5571 -720.6749
v  -354.0020 -200.8972 581.8717
v  -390.4932 -199.5571 -551.5626
v  -232.2861 -199.5571 -500.4266
v  232.4009 -347.3471 -735.2800
v  0.0566 -347.3471 -728.7781
v  676.5083 -347.3471 -955.4272
v  536.3491 -347.3471 -893.6213
v  390.6187 -347.3471 -786.3799
v  -536.1987 -347.3471 -893.7434
v  -676.3438 -347.3471 -955.5812
v  -390.4932 -347.3471 -786.4688
v  -232.2856 -347.3471 -735.3329
v  -0.0562 -348.6871 825.0142
v  227.6685 -348.6871 865.6761
v  492.3354 -348.6871 959.4279
v  676.5103 -347.3471 1073.0571
v  353.8687 -348.6871 913.2822
v  -227.7910 -348.6871 865.6241
v  -676.6777 -348.6871 1072.9033
v  -492.4780 -348.6871 959.3158
v  -354.0024 -348.6871 913.2018
# 54 vertices

vn -0.0105 0.9565 -0.2916
vn -0.0106 0.9399 -0.3413
vn -0.0150 0.9287 0.3706
vn -0.0198 0.9614 0.2745
vn -0.0098 0.8825 -0.4702
vn -0.0101 0.9057 0.4239
vn -0.0043 0.8327 -0.5538
vn -0.0049 0.8703 0.4925
vn -0.0001 0.8282 0.5604
vn -0.0001 0.6729 0.7397
vn -0.1813 0.7324 0.6563
vn -0.2473 0.8145 0.5248
vn -0.2739 0.8584 0.4338
vn -0.2326 0.8171 -0.5275
vn -0.3231 0.7673 -0.5540
vn -0.2048 0.7917 0.5756
vn -0.3417 0.6698 -0.6593
vn -0.1316 0.6301 -0.7653
vn 0.0001 0.8254 -0.5646
vn 0.0001 0.6339 -0.7734
vn 0.0106 0.9612 0.2758
vn 0.0103 0.9288 0.3705
vn 0.0107 0.9399 -0.3413
vn 0.0106 0.9567 -0.2909
vn 0.0100 0.9057 0.4239
vn 0.0099 0.8825 -0.4702
vn 0.0048 0.8703 0.4925
vn 0.0045 0.8327 -0.5538
vn 0.1812 0.7324 0.6563
vn 0.2679 0.8599 0.4345
vn 0.2450 0.8148 0.5255
vn 0.3233 0.7672 -0.5539
vn 0.2327 0.8171 -0.5275
vn 0.2046 0.7917 0.5757
vn 0.3418 0.6697 -0.6592
vn 0.1318 0.6300 -0.7653
vn -0.0991 0.8423 -0.5299
vn 0.0001 0.8464 -0.5325
vn -0.2286 0.8240 -0.5184
vn -0.2773 0.8132 -0.5116
vn -0.2912 0.8097 -0.5094
vn 0.2774 0.8132 -0.5116
vn 0.2287 0.8240 -0.5184
vn 0.2914 0.8097 -0.5094
vn 0.0992 0.8422 -0.5299
vn -0.0001 0.9133 0.4074
vn -0.1182 0.9069 0.4045
vn -0.2061 0.8937 0.3986
vn -0.2498 0.8843 0.3944
vn -0.1415 0.9041 0.4033
vn 0.1181 0.9069 0.4045
vn 0.2436 0.8857 0.3951
vn 0.2022 0.8944 0.3989
vn 0.1414 0.9041 0.4033
# 54 vertex normals

vt 0.6979 0.0202 0.0000
vt 0.7006 0.0824 0.0000
vt 0.3333 0.0942 0.0000
vt 0.3312 0.0323 0.0000
vt 0.7020 0.1476 0.0000
vt 0.3357 0.1619 0.0000
vt 0.7028 0.2176 0.0000
vt 0.3389 0.2283 0.0000
vt 0.3432 0.3290 0.0000
vt 0.2530 0.3315 0.0000
vt 0.2379 0.2362 0.0000
vt 0.2038 0.1195 0.0000
vt 0.1602 0.0351 0.0000
vt 0.8600 0.0098 0.0000
vt 0.8416 0.0752 0.0000
vt 0.2208 0.1809 0.0000
vt 0.8085 0.1471 0.0000
vt 0.7960 0.2172 0.0000
vt 0.7049 0.3188 0.0000
vt 0.7967 0.3163 0.0000
vt 0.3477 0.6256 0.0000
vt 0.3465 0.5637 0.0000
vt 0.7138 0.5551 0.0000
vt 0.7145 0.6174 0.0000
vt 0.3452 0.4961 0.0000
vt 0.7115 0.4899 0.0000
vt 0.3446 0.4297 0.0000
vt 0.7084 0.4200 0.0000
vt 0.2433 0.4275 0.0000
vt 0.1769 0.6325 0.0000
vt 0.2160 0.5459 0.0000
vt 0.8550 0.5545 0.0000
vt 0.8770 0.6186 0.0000
vt 0.2295 0.4837 0.0000
vt 0.8179 0.4845 0.0000
vt 0.8015 0.4152 0.0000
vt 0.9157 0.2096 0.0000
vt 0.9182 0.3129 0.0000
vt 0.9822 0.0005 0.0000
vt 0.9640 0.0656 0.0000
vt 0.9295 0.1375 0.0000
vt 0.9777 0.5572 0.0000
vt 0.9995 0.6212 0.0000
vt 0.9392 0.4873 0.0000
vt 0.9215 0.4161 0.0000
vt 0.0979 0.3359 0.0000
vt 0.0810 0.2351 0.0000
vt 0.0448 0.1173 0.0000
vt 0.0005 0.0329 0.0000
vt 0.0625 0.1789 0.0000
vt 0.0868 0.4375 0.0000
vt 0.0177 0.6438 0.0000
vt 0.0573 0.5572 0.0000
vt 0.0715 0.4946 0.0000
# 54 texture coords

o Puente_plano_Col
g Puente_plano_Col
usemtl Material__0
s 1
f 1/1/1 2/2/2 3/3/3 4/4/4 
f 2/2/2 5/5/5 6/6/6 3/3/3 
f 5/5/5 7/7/7 8/8/8 6/6/6 
f 8/8/8 9/9/9 10/10/10 11/11/11 
f 4/4/4 3/3/3 12/12/12 13/13/13 
f 2/2/2 1/1/1 14/14/14 15/15/15 
f 3/3/3 6/6/6 16/16/16 12/12/12 
f 5/5/5 2/2/2 15/15/15 17/17/17 
f 6/6/6 8/8/8 11/11/11 16/16/16 
f 7/7/7 5/5/5 17/17/17 18/18/18 
f 9/9/9 8/8/8 7/7/7 19/19/19 
f 19/19/19 7/7/7 18/18/18 20/20/20 
f 21/21/21 22/22/22 23/23/23 24/24/24 
f 22/22/22 25/25/25 26/26/26 23/23/23 
f 25/25/25 27/27/27 28/28/28 26/26/26 
f 27/27/27 29/29/29 10/10/10 9/9/9 
f 21/21/21 30/30/30 31/31/31 22/22/22 
f 23/23/23 32/32/32 33/33/33 24/24/24 
f 22/22/22 31/31/31 34/34/34 25/25/25 
f 26/26/26 35/35/35 32/32/32 23/23/23 
f 25/25/25 34/34/34 29/29/29 27/27/27 
f 28/28/28 36/36/36 35/35/35 26/26/26 
f 19/19/19 28/28/28 27/27/27 9/9/9 
f 19/19/19 20/20/20 36/36/36 28/28/28 
f 20/20/20 18/18/18 37/37/37 38/38/38 
f 15/15/15 14/14/14 39/39/39 40/40/40 
f 17/17/17 15/15/15 40/40/40 41/41/41 
f 18/18/18 17/17/17 41/41/41 37/37/37 
f 33/33/33 32/32/32 42/42/42 43/43/43 
f 32/32/32 35/35/35 44/44/44 42/42/42 
f 35/35/35 36/36/36 45/45/45 44/44/44 
f 36/36/36 20/20/20 38/38/38 45/45/45 
f 11/11/11 10/10/10 46/46/46 47/47/47 
f 13/13/13 12/12/12 48/48/48 49/49/49 
f 12/12/12 16/16/16 50/50/50 48/48/48 
f 16/16/16 11/11/11 47/47/47 50/50/50 
f 10/10/10 29/29/29 51/51/51 46/46/46 
f 31/31/31 30/30/30 52/52/52 53/53/53 
f 34/34/34 31/31/31 53/53/53 54/54/54 
f 29/29/29 34/34/34 54/54/54 51/51/51 
# 40 polygons

