# 3ds Max Wavefront OBJ Exporter v0.97b - (c)2007 guruware
# File Created: 18.05.2017 17:55:13

mtllib Puente_1_col.mtl

#
# object Puente1_col
#

v  676.5610 112.7660 -416.1433
v  536.3481 67.7528 -416.1641
v  536.2739 67.7528 413.2878
v  676.4878 114.1060 413.3087
v  390.6187 33.6220 -416.1859
v  383.0825 33.6220 413.2650
v  232.4009 0.0000 -416.2094
v  232.3267 -0.0000 413.2425
v  -0.0469 -0.0000 413.2081
v  -0.0571 -93.0593 493.6841
v  227.6675 -93.0593 534.3460
v  492.3354 -93.0593 628.0978
v  676.5103 -91.7192 741.7272
v  676.5083 -91.7192 -720.5210
v  536.3491 -91.7192 -658.7151
v  353.8677 -93.0593 581.9523
v  390.6187 -91.7192 -551.4736
v  232.3999 -91.7192 -500.3738
v  0.0474 0.0000 -416.2438
v  0.0562 -91.7192 -493.8719
v  -676.5815 112.7660 413.1547
v  -536.3677 67.7528 413.1657
v  -536.2529 67.7528 -416.2862
v  -676.4658 112.7660 -416.2973
v  -383.1763 33.6220 413.1778
v  -390.5234 33.6220 -416.2747
v  -232.4204 -0.0000 413.1896
v  -232.3057 0.0000 -416.2622
v  -227.7905 -93.0593 534.2942
v  -676.6777 -93.0593 741.5732
v  -492.4785 -93.0593 627.9857
v  -536.1987 -91.7192 -658.8372
v  -676.3442 -91.7192 -720.6749
v  -354.0020 -93.0593 581.8717
v  -390.4932 -91.7192 -551.5626
v  -232.2861 -91.7192 -500.4266
v  232.4009 -239.5092 -735.2800
v  0.0566 -239.5092 -728.7781
v  676.5083 -239.5092 -955.4272
v  536.3491 -239.5092 -893.6213
v  390.6187 -239.5092 -786.3799
v  -536.1987 -239.5092 -893.7434
v  -676.3438 -239.5092 -955.5812
v  -390.4932 -239.5092 -786.4688
v  -232.2856 -239.5092 -735.3329
v  -0.0562 -240.8492 825.0142
v  227.6685 -240.8492 865.6761
v  492.3354 -240.8492 959.4279
v  676.5103 -239.5092 1073.0571
v  353.8687 -240.8492 913.2822
v  -227.7910 -240.8492 865.6241
v  -676.6777 -240.8492 1072.9033
v  -492.4780 -240.8492 959.3158
v  -354.0024 -240.8492 913.2018
# 54 vertices

vn -0.2947 0.9181 -0.2652
vn -0.2580 0.9246 -0.2804
vn -0.2589 0.9210 0.2911
vn -0.3040 0.9194 0.2495
vn -0.2036 0.9101 -0.3610
vn -0.2077 0.9316 0.2982
vn -0.0973 0.9063 -0.4112
vn -0.1066 0.9394 0.3258
vn -0.0000 0.9094 0.4159
vn -0.0001 0.7913 0.6114
vn -0.1412 0.8492 0.5089
vn -0.2255 0.8489 0.4781
vn -0.2739 0.8584 0.4338
vn -0.2326 0.8171 -0.5275
vn -0.3014 0.8022 -0.5154
vn -0.1730 0.8566 0.4861
vn -0.3054 0.7524 -0.5836
vn -0.1121 0.7577 -0.6429
vn 0.0000 0.9072 -0.4207
vn 0.0001 0.7537 -0.6572
vn 0.2958 0.9216 0.2513
vn 0.2544 0.9221 0.2917
vn 0.2580 0.9246 -0.2803
vn 0.2948 0.9183 -0.2644
vn 0.2076 0.9316 0.2982
vn 0.2037 0.9101 -0.3610
vn 0.1066 0.9394 0.3258
vn 0.0974 0.9063 -0.4112
vn 0.1411 0.8492 0.5089
vn 0.2679 0.8599 0.4345
vn 0.2230 0.8492 0.4787
vn 0.3015 0.8022 -0.5154
vn 0.2327 0.8171 -0.5275
vn 0.1729 0.8566 0.4862
vn 0.3055 0.7524 -0.5836
vn 0.1122 0.7577 -0.6429
vn -0.0991 0.8423 -0.5299
vn 0.0001 0.8464 -0.5325
vn -0.2286 0.8240 -0.5184
vn -0.2773 0.8132 -0.5116
vn -0.2912 0.8097 -0.5094
vn 0.2774 0.8132 -0.5116
vn 0.2287 0.8240 -0.5184
vn 0.2914 0.8097 -0.5094
vn 0.0992 0.8422 -0.5299
vn -0.0001 0.9133 0.4074
vn -0.1182 0.9069 0.4045
vn -0.2061 0.8937 0.3986
vn -0.2498 0.8843 0.3944
vn -0.1415 0.9041 0.4033
vn 0.1181 0.9069 0.4045
vn 0.2436 0.8857 0.3951
vn 0.2022 0.8944 0.3989
vn 0.1414 0.9041 0.4033
# 54 vertex normals

vt 0.6836 0.0200 0.0000
vt 0.6907 0.0827 0.0000
vt 0.3334 0.0989 0.0000
vt 0.3350 0.0356 0.0000
vt 0.6965 0.1485 0.0000
vt 0.3339 0.1676 0.0000
vt 0.7033 0.2212 0.0000
vt 0.3342 0.2364 0.0000
vt 0.3390 0.3400 0.0000
vt 0.2863 0.3421 0.0000
vt 0.2664 0.2445 0.0000
vt 0.2218 0.1330 0.0000
vt 0.1722 0.0558 0.0000
vt 0.8401 0.0248 0.0000
vt 0.8168 0.0860 0.0000
vt 0.2444 0.1909 0.0000
vt 0.7774 0.1529 0.0000
vt 0.7587 0.2227 0.0000
vt 0.7060 0.3261 0.0000
vt 0.7583 0.3241 0.0000
vt 0.3581 0.6436 0.0000
vt 0.3518 0.5808 0.0000
vt 0.7092 0.5700 0.0000
vt 0.7068 0.6330 0.0000
vt 0.3471 0.5123 0.0000
vt 0.7100 0.5038 0.0000
vt 0.3421 0.4437 0.0000
vt 0.7113 0.4309 0.0000
vt 0.2740 0.4408 0.0000
vt 0.1942 0.6360 0.0000
vt 0.2380 0.5555 0.0000
vt 0.8347 0.5571 0.0000
vt 0.8626 0.6163 0.0000
vt 0.2561 0.4959 0.0000
vt 0.7904 0.4933 0.0000
vt 0.7664 0.4252 0.0000
vt 0.8780 0.2211 0.0000
vt 0.8777 0.3196 0.0000
vt 0.9579 0.0259 0.0000
vt 0.9351 0.0869 0.0000
vt 0.8962 0.1530 0.0000
vt 0.9526 0.5473 0.0000
vt 0.9800 0.6063 0.0000
vt 0.9088 0.4843 0.0000
vt 0.8855 0.4177 0.0000
vt 0.1327 0.3479 0.0000
vt 0.1123 0.2532 0.0000
vt 0.0689 0.1432 0.0000
vt 0.0200 0.0664 0.0000
vt 0.0906 0.2008 0.0000
vt 0.1196 0.4439 0.0000
vt 0.0417 0.6371 0.0000
vt 0.0848 0.5569 0.0000
vt 0.1020 0.4978 0.0000
# 54 texture coords

o Puente1_col
g Puente1_col
usemtl Material__0
s 1
f 1/1/1 2/2/2 3/3/3 4/4/4 
f 2/2/2 5/5/5 6/6/6 3/3/3 
f 5/5/5 7/7/7 8/8/8 6/6/6 
f 8/8/8 9/9/9 10/10/10 11/11/11 
f 4/4/4 3/3/3 12/12/12 13/13/13 
f 2/2/2 1/1/1 14/14/14 15/15/15 
f 3/3/3 6/6/6 16/16/16 12/12/12 
f 5/5/5 2/2/2 15/15/15 17/17/17 
f 6/6/6 8/8/8 11/11/11 16/16/16 
f 7/7/7 5/5/5 17/17/17 18/18/18 
f 9/9/9 8/8/8 7/7/7 19/19/19 
f 19/19/19 7/7/7 18/18/18 20/20/20 
f 21/21/21 22/22/22 23/23/23 24/24/24 
f 22/22/22 25/25/25 26/26/26 23/23/23 
f 25/25/25 27/27/27 28/28/28 26/26/26 
f 27/27/27 29/29/29 10/10/10 9/9/9 
f 21/21/21 30/30/30 31/31/31 22/22/22 
f 23/23/23 32/32/32 33/33/33 24/24/24 
f 22/22/22 31/31/31 34/34/34 25/25/25 
f 26/26/26 35/35/35 32/32/32 23/23/23 
f 25/25/25 34/34/34 29/29/29 27/27/27 
f 28/28/28 36/36/36 35/35/35 26/26/26 
f 19/19/19 28/28/28 27/27/27 9/9/9 
f 19/19/19 20/20/20 36/36/36 28/28/28 
f 20/20/20 18/18/18 37/37/37 38/38/38 
f 15/15/15 14/14/14 39/39/39 40/40/40 
f 17/17/17 15/15/15 40/40/40 41/41/41 
f 18/18/18 17/17/17 41/41/41 37/37/37 
f 33/33/33 32/32/32 42/42/42 43/43/43 
f 32/32/32 35/35/35 44/44/44 42/42/42 
f 35/35/35 36/36/36 45/45/45 44/44/44 
f 36/36/36 20/20/20 38/38/38 45/45/45 
f 11/11/11 10/10/10 46/46/46 47/47/47 
f 13/13/13 12/12/12 48/48/48 49/49/49 
f 12/12/12 16/16/16 50/50/50 48/48/48 
f 16/16/16 11/11/11 47/47/47 50/50/50 
f 10/10/10 29/29/29 51/51/51 46/46/46 
f 31/31/31 30/30/30 52/52/52 53/53/53 
f 34/34/34 31/31/31 53/53/53 54/54/54 
f 29/29/29 34/34/34 54/54/54 51/51/51 
# 40 polygons

